<svg width="488" height="488" viewBox="0 0 488 488" fill="none" xmlns="http://www.w3.org/2000/svg">
<path d="M185.371 64.0584C177.565 64.3675 171.074 64.9747 164.173 66.0346C120.873 72.6809 81.7238 94.839 53.4825 128.678C31.0706 155.55 16.972 188.55 13.0968 223.239C12.2246 231 11.9265 237.293 12.0149 245.54C12.0811 250.994 12.1584 252.937 12.4786 257.243C15.2276 293.312 28.719 327.482 51.3628 355.723C57.6227 363.529 65.3951 371.676 72.8694 378.257C102.634 404.444 139.719 419.912 179.243 422.617C187.347 423.18 197.074 423.136 205.244 422.517C217.156 421.601 229.521 419.404 240.606 416.224C241.776 415.893 242.847 415.617 242.991 415.617C243.134 415.617 243.51 415.705 243.841 415.827C244.437 416.026 244.459 416.026 245.099 415.827C245.464 415.717 245.861 415.617 245.994 415.617C246.126 415.617 247.186 415.893 248.367 416.235C259.993 419.559 272.689 421.767 285.231 422.617C293.335 423.18 303.061 423.136 311.231 422.517C343.856 420.022 375.111 408.695 401.619 389.75C422.474 374.845 439.83 355.822 452.681 333.808C466.569 310.005 474.717 283.431 476.605 255.752C477.168 247.649 477.124 237.922 476.506 229.752C472.962 183.294 451.599 140.281 416.612 109.191C391.307 86.7022 360.074 71.7977 326.842 66.3548C316.012 64.5883 306.66 63.8928 295.443 64.0142C289.99 64.0805 288.046 64.1578 283.741 64.4779C271.795 65.3943 259.695 67.5472 248.301 70.782L246.104 71.4113L245.265 71.2015C244.812 71.0911 244.415 71.0028 244.382 71.0138C244.349 71.0249 244.006 71.1132 243.609 71.2236L242.891 71.4113L240.297 70.6826C226.507 66.8185 213.038 64.6877 198.564 64.0915C196.179 63.9922 187.491 63.9701 185.371 64.0584ZM247.042 72.9349C271.972 80.8839 295.377 94.3201 314.311 111.565C326.787 122.926 336.889 134.794 345.423 148.109C359.389 169.914 368.277 193.937 371.832 219.485C372.108 221.494 372.715 226.86 372.837 228.372C372.87 228.825 372.925 229.421 372.947 229.697C373.51 235.482 373.609 247.075 373.168 254.152C372.925 257.938 372.406 263.525 372.075 265.799C372.042 266.009 371.931 266.782 371.843 267.51C371.313 271.529 370.065 278.297 368.972 283.022C363.143 308.393 351.727 332.163 335.432 352.908C329.47 360.482 322.216 368.232 314.422 375.32C298.722 389.617 279.877 401.375 259.728 409.457C255.665 411.091 247.076 414.127 244.812 414.734C244.47 414.833 244.039 414.712 240.783 413.641C220.799 407.039 203.102 397.809 186.751 385.444C175.015 376.578 163.599 365.461 154.458 354.012C135.38 330.143 123.037 302.608 117.925 272.534C117.55 270.37 116.843 265.369 116.7 263.978C116.667 263.613 116.589 262.962 116.534 262.542C116.479 262.112 116.413 261.449 116.369 261.052C116.335 260.654 116.291 260.08 116.258 259.782C116.081 257.905 115.927 255.984 115.75 253.268C115.563 250.53 115.496 239.589 115.64 236.321C116.148 224.762 117.572 214.417 120.188 203.2C125.709 179.53 136.241 157.085 151.135 137.234C157.858 128.269 165.73 119.691 174.695 111.532C193.618 94.3311 216.582 81.1379 241.842 72.9569C243.211 72.5153 244.382 72.162 244.448 72.151C244.514 72.151 245.684 72.5043 247.042 72.9349Z" fill="url(#paint0_linear_958_108)" fill-opacity="0.44"/>
<path d="M185.371 64.0584C177.565 64.3675 171.074 64.9747 164.173 66.0346C120.873 72.6809 81.7238 94.839 53.4825 128.678C31.0706 155.55 16.972 188.55 13.0968 223.239C12.2246 231 11.9265 237.293 12.0149 245.54C12.0811 250.994 12.1584 252.937 12.4786 257.243C15.2276 293.312 28.719 327.482 51.3628 355.723C57.6227 363.529 65.3951 371.676 72.8694 378.257C102.634 404.444 139.719 419.912 179.243 422.617C187.347 423.18 197.074 423.136 205.244 422.517C217.156 421.601 229.521 419.404 240.606 416.224C241.776 415.893 242.847 415.617 242.991 415.617C243.134 415.617 243.51 415.705 243.841 415.827C244.437 416.026 244.459 416.026 245.099 415.827C245.464 415.717 245.861 415.617 245.994 415.617C246.126 415.617 247.186 415.893 248.367 416.235C259.993 419.559 272.689 421.767 285.231 422.617C293.335 423.18 303.061 423.136 311.231 422.517C343.856 420.022 375.111 408.695 401.619 389.75C422.474 374.845 439.83 355.822 452.681 333.808C466.569 310.005 474.717 283.431 476.605 255.752C477.168 247.649 477.124 237.922 476.506 229.752C472.962 183.294 451.599 140.281 416.612 109.191C391.307 86.7022 360.074 71.7977 326.842 66.3548C316.012 64.5883 306.66 63.8928 295.443 64.0142C289.99 64.0805 288.046 64.1578 283.741 64.4779C271.795 65.3943 259.695 67.5472 248.301 70.782L246.104 71.4113L245.265 71.2015C244.812 71.0911 244.415 71.0028 244.382 71.0138C244.349 71.0249 244.006 71.1132 243.609 71.2236L242.891 71.4113L240.297 70.6826C226.507 66.8185 213.038 64.6877 198.564 64.0915C196.179 63.9922 187.491 63.9701 185.371 64.0584ZM247.042 72.9349C271.972 80.8839 295.377 94.3201 314.311 111.565C326.787 122.926 336.889 134.794 345.423 148.109C359.389 169.914 368.277 193.937 371.832 219.485C372.108 221.494 372.715 226.86 372.837 228.372C372.87 228.825 372.925 229.421 372.947 229.697C373.51 235.482 373.609 247.075 373.168 254.152C372.925 257.938 372.406 263.525 372.075 265.799C372.042 266.009 371.931 266.782 371.843 267.51C371.313 271.529 370.065 278.297 368.972 283.022C363.143 308.393 351.727 332.163 335.432 352.908C329.47 360.482 322.216 368.232 314.422 375.32C298.722 389.617 279.877 401.375 259.728 409.457C255.665 411.091 247.076 414.127 244.812 414.734C244.47 414.833 244.039 414.712 240.783 413.641C220.799 407.039 203.102 397.809 186.751 385.444C175.015 376.578 163.599 365.461 154.458 354.012C135.38 330.143 123.037 302.608 117.925 272.534C117.55 270.37 116.843 265.369 116.7 263.978C116.667 263.613 116.589 262.962 116.534 262.542C116.479 262.112 116.413 261.449 116.369 261.052C116.335 260.654 116.291 260.08 116.258 259.782C116.081 257.905 115.927 255.984 115.75 253.268C115.563 250.53 115.496 239.589 115.64 236.321C116.148 224.762 117.572 214.417 120.188 203.2C125.709 179.53 136.241 157.085 151.135 137.234C157.858 128.269 165.73 119.691 174.695 111.532C193.618 94.3311 216.582 81.1379 241.842 72.9569C243.211 72.5153 244.382 72.162 244.448 72.151C244.514 72.151 245.684 72.5043 247.042 72.9349Z" fill="url(#paint1_linear_958_108)" fill-opacity="0.69"/>
<defs>
<linearGradient id="paint0_linear_958_108" x1="244.5" y1="64.0008" x2="244.5" y2="423.012" gradientUnits="userSpaceOnUse">
<stop offset="0.165" stop-color="#55F0E1"/>
<stop offset="1" stop-color="#83618A"/>
</linearGradient>
<linearGradient id="paint1_linear_958_108" x1="244.5" y1="64.0008" x2="244.5" y2="423.012" gradientUnits="userSpaceOnUse">
<stop offset="0.245" stop-color="#00FFE6"/>
<stop offset="0.9" stop-color="#DF44FF"/>
</linearGradient>
</defs>
</svg>
